<svg xmlns="http://www.w3.org/2000/svg" viewBox="0 0 14 14" fill="none">
  <path
    d="M7.00033 1.16675L6.24112 4.20358C6.09297 4.79616 6.0189 5.09245 5.86463 5.33355C5.72816 5.54681 5.54705 5.72792 5.33379 5.86438C5.0927 6.01866 4.7964 6.09273 4.20382 6.24087L1.16699 7.00008L4.20382 7.75929C4.7964 7.90743 5.0927 7.98151 5.33379 8.13578C5.54705 8.27224 5.72816 8.45335 5.86463 8.66661C6.0189 8.90771 6.09297 9.204 6.24112 9.79659L7.00033 12.8334L7.75953 9.79659C7.90768 9.204 7.98175 8.90771 8.13603 8.66661C8.27249 8.45335 8.4536 8.27224 8.66686 8.13578C8.90796 7.98151 9.20425 7.90743 9.79683 7.75929L12.8337 7.00008L9.79683 6.24087C9.20425 6.09273 8.90796 6.01866 8.66686 5.86438C8.4536 5.72792 8.27249 5.54681 8.13603 5.33355C7.98175 5.09245 7.90768 4.79616 7.75953 4.20358L7.00033 1.16675Z"
    stroke="currentColor" stroke-width="1.16667" stroke-linecap="round" stroke-linejoin="round"></path>
</svg>